<svg width="485" height="614" xmlns="http://www.w3.org/2000/svg" xmlns:xlink="http://www.w3.org/1999/xlink" xml:space="preserve" overflow="hidden"><g transform="translate(-1705 -96)"><g><path d="M1852.62 615.731C1772.73 586.652 1731.53 498.311 1760.61 418.416 1781.41 361.276 1793.29 300.889 1796.25 237.256 1846.89 275.892 1900.79 305.609 1957.93 326.406 2037.82 355.486 2079.02 443.827 2049.94 523.722 2020.86 603.617 1932.52 644.811 1852.62 615.731Z" stroke="#E97132" stroke-width="91.6667" stroke-linecap="round" stroke-linejoin="round" stroke-miterlimit="10" stroke-opacity="1" fill="#E97132" fill-rule="evenodd" fill-opacity="1"/><path d="M1811.83 606.349C1736.04 530.559 1736.04 407.678 1811.83 331.887 1866.04 277.682 1911.78 215.016 1949.06 143.889 1986.35 215.016 2032.09 277.682 2086.29 331.887 2162.08 407.678 2162.08 530.559 2086.29 606.349 2010.5 682.14 1887.62 682.14 1811.83 606.349Z" stroke="#E97132" stroke-width="91.6667" stroke-linecap="round" stroke-linejoin="round" stroke-miterlimit="10" stroke-opacity="1" fill="#E97132" fill-rule="evenodd" fill-opacity="1"/><path d="M1883.23 592.671C1846.87 556.314 1846.87 497.367 1883.23 461.009 1908.98 435.258 1930.93 405.699 1949.06 372.333 1967.2 405.699 1989.14 435.258 2014.89 461.009 2051.25 497.367 2051.25 556.314 2014.89 592.671 1978.54 629.029 1919.59 629.029 1883.23 592.671Z" stroke="#FFC000" stroke-width="45.8333" stroke-linecap="round" stroke-linejoin="round" stroke-miterlimit="10" stroke-opacity="1" fill="#FFC000" fill-rule="evenodd" fill-opacity="1"/></g></g></svg>