<svg width="1297" height="1242" xmlns="http://www.w3.org/2000/svg" xmlns:xlink="http://www.w3.org/1999/xlink" xml:space="preserve" overflow="hidden"><defs><radialGradient cx="662247" cy="789709" r="1030637" fx="-0.5" fy="1579418" gradientUnits="userSpaceOnUse" spreadMethod="pad" id="fill0" gradientTransform="matrix(0.000360892 0 0 0.000360892 1591 1801)"><stop offset="0" stop-color="#FF9C62" stop-opacity="1"/><stop offset="1" stop-color="#FF9C62" stop-opacity="1"/></radialGradient><radialGradient cx="1023851" cy="1180408" r="1562573" fx="-0.6875" fy="2360815" gradientUnits="userSpaceOnUse" spreadMethod="pad" id="fill1" gradientTransform="matrix(0.000360892 0 0 0.000360892 1488 1617)"><stop offset="0" stop-color="#F8DFC2" stop-opacity="1"/><stop offset="0.047619" stop-color="#F8DFC3" stop-opacity="1"/><stop offset="0.0952381" stop-color="#F8E0C5" stop-opacity="1"/><stop offset="0.142857" stop-color="#F8E1C7" stop-opacity="1"/><stop offset="0.190476" stop-color="#F8E2C9" stop-opacity="1"/><stop offset="0.238095" stop-color="#F8E3CA" stop-opacity="1"/><stop offset="0.285714" stop-color="#F8E4CC" stop-opacity="1"/><stop offset="0.333333" stop-color="#F9E4CD" stop-opacity="1"/><stop offset="0.380952" stop-color="#F9E5CF" stop-opacity="1"/><stop offset="0.428571" stop-color="#F9E6D0" stop-opacity="1"/><stop offset="0.47619" stop-color="#F9E6D1" stop-opacity="1"/><stop offset="0.52381" stop-color="#F9E7D2" stop-opacity="1"/><stop offset="0.571429" stop-color="#F9E7D3" stop-opacity="1"/><stop offset="0.619048" stop-color="#F9E8D4" stop-opacity="1"/><stop offset="0.666667" stop-color="#F9E8D5" stop-opacity="1"/><stop offset="0.714286" stop-color="#F9E8D5" stop-opacity="1"/><stop offset="0.761905" stop-color="#F9E9D6" stop-opacity="1"/><stop offset="0.809524" stop-color="#F9E9D7" stop-opacity="1"/><stop offset="0.857143" stop-color="#F9E9D7" stop-opacity="1"/><stop offset="0.904762" stop-color="#F9E9D7" stop-opacity="1"/><stop offset="0.952381" stop-color="#F9E9D7" stop-opacity="1"/><stop offset="1" stop-color="#FAEAD8" stop-opacity="1"/></radialGradient><radialGradient cx="290946" cy="393469" r="489354" fx="0" fy="786938" gradientUnits="userSpaceOnUse" spreadMethod="pad" id="fill2" gradientTransform="matrix(0.000360892 0 0 0.000360892 1682 1974)"><stop offset="0" stop-color="#51D6A0" stop-opacity="1"/><stop offset="1" stop-color="#51D6A0" stop-opacity="1"/></radialGradient></defs><g transform="translate(-1292 -1425)"><g><path d="M461.144 0 460.857 0.0166065 460.857 0.286643 460.856 0.286643C301.479 3.6899 53.5151 233.034 5.85757 520.143-41.7999 807.252 209.567 1040 460.856 1040L461.143 1039.98 461.143 1039.71 461.144 1039.71C712.433 1039.71 963.8 806.966 916.142 519.857 868.485 232.748 620.521 3.40326 461.144 0Z" fill="#FDF6EE" fill-rule="evenodd" fill-opacity="1" transform="matrix(-1 0 0 1 2410 1429)"/><path d="M357.611 0 357.389 0.0134768 357.389 0.232622 357.389 0.232622C233.793 2.9945 41.5003 189.116 4.54247 422.116-32.4154 655.116 162.517 844 357.389 844L357.611 843.986 357.611 843.767 357.611 843.767C552.483 843.767 747.415 654.884 710.458 421.884 673.5 188.884 481.207 2.76187 357.611 0Z" fill="#FFA875" fill-rule="evenodd" fill-opacity="1" transform="matrix(-1 0 0 1 2306 1527)"/><path d="M1682 1875.47C1682 1799.55 1743.55 1738 1819.47 1738L2064.53 1738C2140.45 1738 2202 1799.55 2202 1875.47L2202 2120.53C2202 2196.45 2140.45 2258 2064.53 2258L1819.47 2258C1743.55 2258 1682 2196.45 1682 2120.53Z" fill="#5ED9A7" fill-rule="evenodd" fill-opacity="1"/><path d="M1841 1623C1841 1615.82 1846.82 1610 1854 1610L1854 1610C1861.18 1610 1867 1615.82 1867 1623L1867 1643C1867 1650.18 1861.18 1656 1854 1656L1854 1656C1846.82 1656 1841 1650.18 1841 1643Z" fill="#000000" fill-rule="evenodd" fill-opacity="1"/><path d="M2031 1622C2031 1614.82 2036.82 1609 2044 1609L2044 1609C2051.18 1609 2057 1614.82 2057 1622L2057 1641C2057 1648.18 2051.18 1654 2044 1654 2036.82 1654 2031 1648.18 2031 1641Z" fill="#000000" fill-rule="evenodd" fill-opacity="1"/><path d="M1995 1654.88C1969.63 1680.25 1928.5 1680.25 1903.13 1654.88" stroke="#000000" stroke-width="22.9167" stroke-linecap="round" stroke-linejoin="miter" stroke-miterlimit="8" stroke-opacity="1" fill="none" fill-rule="evenodd"/><path d="M1802.07 2036.89C1791.93 2026.74 1791.93 2010.29 1802.07 2000.14L1802.07 2000.14C1812.22 1989.99 1828.67 1989.99 1838.82 2000.14L1912.32 2073.63C1922.46 2083.78 1922.46 2100.23 1912.32 2110.38 1902.17 2120.53 1885.72 2120.53 1875.57 2110.38Z" fill="#FDF6EE" fill-rule="evenodd" fill-opacity="1"/><path d="M2059.3 1889.9C2069.45 1879.75 2085.9 1879.75 2096.05 1889.9L2096.05 1889.9C2106.2 1900.05 2106.2 1916.5 2096.05 1926.65L1912.31 2110.38C1902.17 2120.53 1885.72 2120.53 1875.57 2110.38 1865.42 2100.23 1865.42 2083.78 1875.57 2073.63Z" fill="#FDF6EE" fill-rule="evenodd" fill-opacity="1"/><path d="M1483.65 2504.3C1490 2505.63 1495.87 2507.01 1501.25 2508.43 1506.62 2509.86 1509.93 2511.14 1511.17 2512.29 1512.4 2513.43 1512.85 2515.82 1512.52 2519.45 1512.19 2523.08 1511.16 2526.57 1509.43 2529.89 1507.7 2533.22 1505.51 2534.68 1502.86 2534.28 1500.09 2533.93 1497.13 2533.31 1493.98 2532.43 1490.82 2531.54 1488.22 2530.93 1486.18 2530.59 1484.14 2530.25 1483.09 2530.22 1483.03 2530.49 1475.87 2569.46 1470.17 2599.06 1465.94 2619.27 1465.51 2621.31 1464.46 2622.94 1462.79 2624.15 1461.11 2625.36 1459.26 2625.82 1457.21 2625.53 1452.36 2624.74 1448.46 2624.03 1445.51 2623.42 1443.43 2622.98 1441.82 2621.9 1440.7 2620.19 1439.58 2618.47 1439.15 2616.68 1439.41 2614.81 1443.59 2586.8 1448.37 2556.47 1453.75 2523.84 1453.75 2524.05 1452.34 2523.87 1449.55 2523.28 1446.76 2522.69 1443.08 2522.06 1438.52 2521.39 1433.96 2520.71 1430.77 2520.11 1428.97 2519.59 1427.17 2519.07 1426.24 2516.69 1426.19 2512.45 1426.14 2508.21 1427.08 2504.18 1429.01 2500.36 1430.94 2496.54 1433.73 2495.01 1437.37 2495.78L1437.54 2495.81C1438.09 2495.93 1440.85 2496.43 1445.81 2497.3 1450.77 2498.18 1456.72 2499.23 1463.68 2500.46 1470.63 2501.69 1477.29 2502.97 1483.65 2504.3Z" fill="#A07BC6" fill-rule="evenodd" fill-opacity="1"/><text fill="#000000" fill-opacity="0" font-family="Arial,Arial_MSFontService,sans-serif" font-size="130.026" direction="ltr" writing-mode="lr-tb" x="1426.19" y="2609.36">T</text><path d="M1555.45 2539.34C1555.34 2541.29 1552.27 2549.47 1546.26 2563.86 1545.92 2563.81 1547.58 2564.08 1551.23 2564.66 1554.88 2565.24 1556.97 2565.56 1557.51 2565.63 1557.17 2565.16 1556.64 2561.17 1555.93 2553.67 1555.23 2546.17 1555.07 2541.39 1555.45 2539.34ZM1557.92 2509.52C1558.72 2509.64 1559.55 2509.76 1560.43 2509.9 1567.48 2511.03 1571.29 2511.9 1571.89 2512.53 1574.15 2514.46 1577.52 2534.47 1581.99 2572.58 1586.47 2610.69 1588.13 2631.37 1586.97 2634.64 1586.72 2635.43 1586.4 2636.07 1585.99 2636.58 1585.58 2637.08 1584.52 2637.48 1582.82 2637.77 1581.11 2638.06 1578.74 2638.2 1575.68 2638.21 1572.37 2638.63 1569.68 2638.34 1567.61 2637.32 1565.55 2636.3 1564.1 2635.36 1563.28 2634.52 1562.45 2633.67 1561.99 2632.84 1561.91 2632.01L1557.38 2590.28C1557.25 2590.37 1554.65 2590.13 1549.58 2589.58 1544.5 2589.03 1540.99 2588.5 1539.05 2588 1531.26 2605.95 1525.09 2619.44 1520.54 2628.48 1519.7 2630.3 1517.19 2631.18 1513 2631.13 1508.81 2631.08 1504.69 2630.25 1500.62 2628.62 1496.55 2627 1494.56 2624.46 1494.63 2621.01 1494.79 2617.49 1503.03 2598.24 1519.36 2563.27 1535.69 2528.29 1545.11 2510.22 1547.63 2509.06 1548.93 2508.57 1552.37 2508.73 1557.92 2509.52Z" fill="#A07BC6" fill-rule="evenodd" fill-opacity="1"/><text fill="#000000" fill-opacity="0" font-family="Arial,Arial_MSFontService,sans-serif" font-size="129.611" direction="ltr" writing-mode="lr-tb" x="1494.63" y="2622.19">A</text><path d="M1636.7 2521.53C1646.31 2522.86 1655.07 2528.45 1662.97 2538.3 1665.2 2541.44 1663.77 2545.38 1658.7 2550.12 1653.62 2554.86 1649.51 2556.9 1646.37 2556.26 1645.39 2555.96 1644.09 2554.67 1642.5 2552.4 1640.9 2550.13 1639.52 2548.52 1638.33 2547.58 1637.15 2546.63 1635.4 2546.67 1633.08 2547.71 1631.84 2548.53 1631.42 2549.68 1631.83 2551.15 1632.23 2552.62 1633.48 2554.88 1635.58 2557.92 1637.68 2560.97 1640.21 2564.12 1643.18 2567.38 1646.14 2570.64 1649.31 2574.36 1652.68 2578.55 1656.05 2582.74 1659.15 2586.77 1661.96 2590.65 1664.78 2594.53 1667.08 2598.64 1668.86 2602.98 1670.65 2607.31 1671.42 2611.29 1671.17 2614.92 1670.78 2621.13 1669.12 2626.72 1666.2 2631.68 1663.28 2636.64 1659.62 2640.57 1655.21 2643.49 1650.81 2646.41 1646.05 2648.52 1640.96 2649.83 1635.86 2651.14 1630.62 2651.41 1625.24 2650.64 1619.86 2649.87 1615.14 2648.19 1611.09 2645.58 1606.91 2642.85 1601.88 2637.55 1595.99 2629.68 1590.1 2621.81 1588.86 2616.14 1592.27 2612.68 1599.5 2606.02 1605.61 2602.89 1610.63 2603.27 1612.32 2603.2 1614.4 2604.74 1616.88 2607.87 1619.35 2611 1621 2612.88 1621.8 2613.51 1626.61 2618.07 1630.93 2620.27 1634.76 2620.12 1638.59 2619.96 1640.98 2617.98 1641.94 2614.17 1642.39 2611.75 1641.86 2608.95 1640.36 2605.75 1638.86 2602.55 1637.15 2599.87 1635.23 2597.7 1633.31 2595.53 1631.17 2593.34 1628.79 2591.13L1624.76 2587.37C1616.49 2579.09 1611.16 2573.24 1608.78 2569.82 1605.03 2564.33 1603 2558.98 1602.67 2553.76 1602.35 2547.35 1603.16 2541.9 1605.12 2537.41 1607.08 2532.92 1609.77 2529.59 1613.2 2527.43 1616.62 2525.26 1619.96 2523.67 1623.21 2522.66 1626.46 2521.64 1629.56 2521.17 1632.52 2521.23 1633.93 2521.24 1635.32 2521.34 1636.7 2521.53Z" fill="#A07BC6" fill-rule="evenodd" fill-opacity="1"/><text fill="#000000" fill-opacity="0" font-family="Arial,Arial_MSFontService,sans-serif" font-size="129.844" direction="ltr" writing-mode="lr-tb" x="1590.39" y="2634.83">S</text><path d="M1693.88 2530.58C1699.99 2531 1704.26 2531.98 1706.72 2533.54 1707.96 2534.4 1708.54 2535.37 1708.46 2536.44L1705.62 2574.59C1711.3 2566.21 1718.93 2557.42 1728.52 2548.2 1738.1 2538.98 1744.04 2534.93 1746.34 2536.06 1749.02 2537.17 1751.56 2538.64 1753.96 2540.48 1756.36 2542.32 1758.13 2543.88 1759.25 2545.18 1760.37 2546.47 1760.99 2547.33 1761.1 2547.76 1761.57 2548.85 1761.04 2550.68 1759.5 2553.25 1757.97 2555.83 1755.34 2559.19 1751.63 2563.34 1747.92 2567.49 1744.69 2571.03 1741.92 2573.95 1739.16 2576.87 1735.26 2580.97 1730.22 2586.25 1725.18 2591.53 1722.48 2594.18 1722.1 2594.21 1722.73 2594.58 1724.63 2596.89 1727.79 2601.15 1730.96 2605.4 1735.19 2611.88 1740.48 2620.58 1745.77 2629.27 1749.78 2637.3 1752.51 2644.66 1752.86 2645.61 1752.84 2646.74 1752.46 2648.04 1752.08 2649.34 1751.27 2650.35 1750.02 2651.06 1745.41 2653.93 1740.83 2656.6 1736.28 2659.05 1733.98 2659.92 1731.34 2658.03 1728.37 2653.36 1725.97 2651.38 1722.38 2646.02 1717.59 2637.28 1712.8 2628.53 1708.79 2621.05 1705.55 2614.83 1704.33 2612.5 1703.43 2610.6 1702.83 2609.14L1702.35 2607.85 1702.29 2609.8C1702.17 2613.72 1702 2620.16 1701.79 2629.11 1701.44 2643.43 1700.67 2651.55 1699.49 2653.45 1698.69 2656.22 1690.6 2656.51 1675.24 2654.33 1673.13 2654.18 1672.15 2653.07 1672.3 2651 1672.06 2644.92 1674.47 2605.94 1679.52 2534.05 1679.71 2531.36 1683.59 2530.15 1691.16 2530.44 1692.1 2530.48 1693.01 2530.53 1693.88 2530.58Z" fill="#A07BC6" fill-rule="evenodd" fill-opacity="1"/><text fill="#000000" fill-opacity="0" font-family="Arial,Arial_MSFontService,sans-serif" font-size="128.854" direction="ltr" writing-mode="lr-tb" x="1672.28" y="2643.15">K</text><path d="M1761.63 2582.39C1761.99 2582.32 1762.37 2582.36 1762.78 2582.49L1809.16 2584.68C1810.69 2584.54 1811.86 2585.29 1812.66 2586.96 1813.46 2588.62 1813.9 2590.36 1813.99 2592.18 1814.08 2594 1814.05 2595.85 1813.9 2597.74 1813.75 2599.62 1813.24 2601.34 1812.36 2602.91 1811.48 2604.47 1810.26 2605.22 1808.71 2605.15L1761.72 2602.92C1758.31 2602.98 1756.77 2599.65 1757.09 2592.95 1757.36 2587.23 1758.53 2583.87 1760.61 2582.88 1760.93 2582.62 1761.27 2582.46 1761.63 2582.39Z" fill="#A07BC6" fill-rule="evenodd" fill-opacity="1"/><text fill="#000000" fill-opacity="0" font-family="Arial,Arial_MSFontService,sans-serif" font-size="22.7939" direction="ltr" writing-mode="lr-tb" x="1757.05" y="2602.3">-</text><path d="M1860.29 2562.18C1860.4 2564.14 1858.32 2572.61 1854.03 2587.61 1853.68 2587.6 1855.36 2587.67 1859.05 2587.82 1862.75 2587.97 1864.87 2588.05 1865.41 2588.05 1865.01 2587.62 1864.02 2583.72 1862.44 2576.36 1860.86 2568.99 1860.15 2564.26 1860.29 2562.18ZM1859.26 2532.28C1860.06 2532.3 1860.91 2532.33 1861.8 2532.37 1868.92 2532.66 1872.82 2533.08 1873.48 2533.64 1875.95 2535.29 1881.64 2554.77 1890.54 2592.09 1899.43 2629.42 1903.5 2649.77 1902.73 2653.15 1902.58 2653.96 1902.33 2654.64 1901.98 2655.19 1901.63 2655.74 1900.63 2656.25 1898.97 2656.74 1897.31 2657.23 1894.97 2657.65 1891.94 2658.01 1888.69 2658.82 1885.99 2658.84 1883.82 2658.07 1881.65 2657.3 1880.1 2656.54 1879.18 2655.8 1878.26 2655.05 1877.71 2654.27 1877.53 2653.46L1868.16 2612.55C1868.04 2612.65 1865.43 2612.72 1860.33 2612.77 1855.22 2612.81 1851.67 2612.69 1849.68 2612.43 1844.05 2631.16 1839.5 2645.28 1836.03 2654.79 1835.41 2656.69 1833.02 2657.87 1828.86 2658.31 1824.69 2658.75 1820.5 2658.4 1816.27 2657.26 1812.04 2656.12 1809.76 2653.84 1809.43 2650.4 1809.18 2646.88 1815.11 2626.81 1827.24 2590.16 1839.37 2553.52 1846.61 2534.48 1848.98 2533.03 1850.22 2532.39 1853.65 2532.14 1859.26 2532.28Z" fill="#A07BC6" fill-rule="evenodd" fill-opacity="1"/><text fill="#000000" fill-opacity="0" font-family="Arial,Arial_MSFontService,sans-serif" font-size="126.387" direction="ltr" writing-mode="lr-tb" x="1809.42" y="2642.83">A</text><path d="M1913.26 2586.96C1913.62 2586.87 1914 2586.89 1914.41 2587L1960.85 2587.08C1962.37 2586.86 1963.57 2587.56 1964.45 2589.19 1965.32 2590.81 1965.85 2592.53 1966.02 2594.34 1966.19 2596.16 1966.25 2598.01 1966.18 2599.9 1966.12 2601.78 1965.68 2603.53 1964.88 2605.13 1964.07 2606.74 1962.89 2607.54 1961.33 2607.54L1914.29 2607.46C1910.89 2607.67 1909.2 2604.42 1909.21 2597.71 1909.22 2591.98 1910.24 2588.57 1912.27 2587.49 1912.57 2587.22 1912.9 2587.04 1913.26 2586.96Z" fill="#A07BC6" fill-rule="evenodd" fill-opacity="1"/><text fill="#000000" fill-opacity="0" font-family="Arial,Arial_MSFontService,sans-serif" font-size="20.6348" direction="ltr" writing-mode="lr-tb" x="1909.21" y="2604.96">-</text><path d="M2015.01 2537.84C2018.21 2537.85 2021.15 2538.28 2023.83 2539.12 2028.08 2539.49 2032.69 2541.12 2037.67 2543.98 2042.65 2546.85 2045.11 2549.94 2045.04 2553.24 2044.86 2556.38 2040.95 2561.38 2033.33 2568.27 2031.48 2569.84 2029.3 2569.76 2026.78 2568.01 2024.45 2566.07 2022.22 2564.61 2020.1 2563.62 2017.97 2562.64 2016.08 2562.13 2014.44 2562.12 2012.8 2562.1 2011.24 2562.35 2009.75 2562.86 2008.27 2563.37 2006.92 2564.19 2005.69 2565.31 2004.46 2566.43 2003.35 2567.58 2002.36 2568.76 2001.37 2569.94 2000.49 2571.27 1999.71 2572.73 1998.94 2574.2 1998.3 2575.44 1997.79 2576.44 1997.29 2577.45 1996.9 2578.35 1996.61 2579.16L1996.22 2580.28C1995.32 2584.68 1994.59 2589.54 1994.04 2594.86 1993.49 2600.18 1993.14 2605.85 1992.99 2611.88 1992.84 2617.91 1993.41 2623.19 1994.69 2627.74 1995.98 2632.28 1997.86 2635.19 2000.35 2636.47 2004.93 2638.55 2008.57 2639.22 2011.27 2638.48 2013.98 2637.75 2016.04 2635.9 2017.45 2632.93 2018.86 2629.95 2019.81 2627.09 2020.28 2624.33 2020.75 2621.57 2020.94 2619.91 2020.83 2619.34 2017.17 2619.42 2014.21 2619.12 2011.96 2618.46 2009.14 2617.91 2007.88 2614.42 2008.16 2607.99 2008.44 2601.56 2009.98 2597.94 2012.79 2597.11 2014.36 2596.6 2015.96 2596.34 2017.58 2596.3 2019.21 2596.27 2021.05 2596.32 2023.08 2596.44 2025.12 2596.57 2026.81 2596.62 2028.16 2596.59 2045.53 2595.59 2055.45 2595.41 2057.91 2596.04 2060.27 2596.68 2061.47 2600.24 2061.54 2606.72 2061.61 2613.19 2060.54 2616.68 2058.34 2617.16 2053.54 2618.33 2049.59 2618.77 2046.48 2618.51 2046.58 2645.54 2037.4 2660.63 2018.95 2663.78 2014.45 2664.52 2010.25 2664.94 2006.34 2665.02 2002.43 2665.09 1999.07 2664.94 1996.25 2664.54 1993.44 2664.15 1990.78 2663.39 1988.3 2662.27 1985.81 2661.14 1983.75 2659.98 1982.14 2658.77 1980.52 2657.56 1979.06 2656.08 1977.76 2654.32 1976.46 2652.56 1975.43 2650.88 1974.68 2649.27 1973.92 2647.66 1973.27 2645.77 1972.71 2643.61 1972.16 2641.45 1971.77 2639.74 1971.54 2638.49 1971.31 2637.23 1971.03 2635.56 1970.7 2633.48 1970.37 2631.4 1970.09 2629.89 1969.86 2628.97 1969.49 2627.38 1969.11 2622.39 1968.72 2614.01 1968.33 2605.64 1968.42 2598.76 1968.98 2593.39 1969.66 2583.24 1971.28 2574.51 1973.84 2567.19 1976.4 2559.87 1980.93 2553.21 1987.43 2547.23 1991.47 2543.39 1997.21 2540.66 2004.64 2539.04 2008.36 2538.22 2011.81 2537.82 2015.01 2537.84Z" fill="#A07BC6" fill-rule="evenodd" fill-opacity="1"/><text fill="#000000" fill-opacity="0" font-family="Arial,Arial_MSFontService,sans-serif" font-size="127.197" direction="ltr" writing-mode="lr-tb" x="1968.48" y="2649.14">G</text><path d="M2106.7 2557.99C2104.69 2558.13 2102.77 2559.1 2100.93 2560.88 2098.48 2563.25 2096.44 2566.52 2094.81 2570.68 2093.17 2574.84 2091.94 2578.36 2091.11 2581.24 2090.28 2584.12 2089.68 2586.75 2089.32 2589.12 2088.59 2593.51 2088.09 2597.96 2087.82 2602.48 2087.55 2607 2087.99 2611.96 2089.14 2617.36 2090.29 2622.76 2092.37 2626.58 2095.38 2628.83 2098.18 2630.75 2100.7 2631.66 2102.96 2631.56 2105.21 2631.46 2107.28 2630.31 2109.18 2628.12 2111.08 2625.93 2112.75 2623.29 2114.21 2620.19 2115.66 2617.08 2116.89 2613.67 2117.89 2609.95 2118.89 2606.23 2119.66 2602.93 2120.19 2600.06 2120.72 2597.19 2121.06 2594.87 2121.19 2593.11 2121.73 2583.62 2120.81 2575.67 2118.42 2569.25 2118.4 2568.77 2118.12 2567.73 2117.6 2566.15 2117.07 2564.56 2116 2562.85 2114.38 2561 2112.76 2559.16 2110.88 2558.2 2108.74 2558.11 2108.05 2557.98 2107.37 2557.94 2106.7 2557.99ZM2107.95 2533.07C2110.95 2533.05 2112.92 2533.13 2113.86 2533.33 2139.96 2539.31 2150.66 2565.26 2145.95 2611.15 2145.23 2617.62 2143.61 2624.01 2141.09 2630.32 2138.57 2636.63 2135.08 2642.41 2130.64 2647.65 2126.19 2652.89 2120.91 2656.54 2114.81 2658.59 2108.71 2660.64 2101.68 2660.57 2093.74 2658.38 2085.57 2655.85 2078.78 2650.87 2073.36 2643.43 2067.94 2635.99 2064.46 2627.58 2062.91 2618.2 2061.35 2608.81 2061.01 2599.22 2061.89 2589.42 2062.76 2579.61 2065.1 2570.3 2068.9 2561.49 2072.69 2552.67 2077.46 2545.71 2083.2 2540.59 2086.6 2537.88 2090.82 2535.96 2095.87 2534.82 2100.92 2533.67 2104.94 2533.09 2107.95 2533.07Z" fill="#A07BC6" fill-rule="evenodd" fill-opacity="1"/><text fill="#000000" fill-opacity="0" font-family="Arial,Arial_MSFontService,sans-serif" font-size="127.008" direction="ltr" writing-mode="lr-tb" x="2061.42" y="2644.2">O</text><path d="M2198.25 2530.37C2204.73 2529.88 2210.75 2529.57 2216.31 2529.44 2221.87 2529.31 2225.4 2529.62 2226.91 2530.38 2228.42 2531.13 2229.51 2533.3 2230.21 2536.88 2230.9 2540.46 2230.88 2544.09 2230.14 2547.77 2229.4 2551.45 2227.71 2553.47 2225.06 2553.81 2222.3 2554.25 2219.28 2554.48 2216.01 2554.51 2212.73 2554.53 2210.06 2554.67 2208.01 2554.91 2205.95 2555.16 2204.94 2555.42 2204.96 2555.69 2208.93 2595.12 2211.7 2625.13 2213.26 2645.72 2213.41 2647.8 2212.86 2649.66 2211.59 2651.28 2210.32 2652.91 2208.66 2653.87 2206.62 2654.16 2201.73 2654.76 2197.79 2655.17 2194.79 2655.39 2192.67 2655.55 2190.83 2654.97 2189.27 2653.63 2187.71 2652.29 2186.8 2650.69 2186.54 2648.83 2182.75 2620.76 2178.9 2590.3 2174.98 2557.46 2175.03 2557.67 2173.64 2557.88 2170.79 2558.09 2167.94 2558.31 2164.24 2558.73 2159.67 2559.35 2155.1 2559.97 2151.87 2560.28 2150 2560.28 2148.12 2560.28 2146.57 2558.25 2145.34 2554.19 2144.1 2550.13 2143.89 2546 2144.68 2541.8 2145.47 2537.59 2147.73 2535.35 2151.44 2535.07L2151.6 2535.05C2152.17 2535.01 2154.96 2534.72 2159.97 2534.18 2164.97 2533.65 2170.99 2533 2178.01 2532.24 2185.03 2531.48 2191.78 2530.86 2198.25 2530.37Z" fill="#A07BC6" fill-rule="evenodd" fill-opacity="1"/><text fill="#000000" fill-opacity="0" font-family="Arial,Arial_MSFontService,sans-serif" font-size="126.009" direction="ltr" writing-mode="lr-tb" x="2144.21" y="2639.67">T</text><path d="M2274.45 2514.88C2275.57 2514.7 2277.47 2514.72 2280.12 2514.96 2283.67 2515.27 2287.9 2516.31 2292.83 2518.08 2297.75 2519.84 2301.49 2522.37 2304.04 2525.66 2304.92 2526.58 2305.14 2527.8 2304.7 2529.31 2300.4 2540.18 2296.89 2545.76 2294.16 2546.06 2292.66 2546.23 2290.47 2545.4 2287.57 2543.6 2284.68 2541.79 2282.18 2540.49 2280.07 2539.69 2277.97 2538.89 2275.16 2539.29 2271.66 2540.89 2268.18 2542.69 2265.53 2546.68 2263.72 2552.86 2261.91 2559.03 2260.98 2564.9 2260.94 2570.44 2260.9 2575.98 2261.17 2580.98 2261.76 2585.42 2262.67 2591.72 2264.08 2596.95 2265.98 2601.12 2267.88 2605.3 2269.88 2608.25 2271.98 2609.99 2274.09 2611.72 2276.5 2612.79 2279.23 2613.2 2281.95 2613.61 2284.49 2613.58 2286.83 2613.12 2289.18 2612.66 2291.7 2611.77 2294.39 2610.46 2297.08 2609.15 2299.26 2607.91 2300.93 2606.74 2302.6 2605.57 2304.09 2604.49 2305.41 2603.48 2307.35 2602.23 2310.07 2602.97 2313.56 2605.68 2317.04 2608.39 2319.9 2611.66 2322.13 2615.49 2324.36 2619.32 2324.77 2621.91 2323.37 2623.27 2308.1 2636.63 2294.32 2643.58 2282.02 2644.14 2269.72 2644.69 2259.45 2640.22 2251.19 2630.71 2242.94 2621.19 2237.63 2608.25 2235.28 2591.89 2235 2588.35 2234.83 2585.18 2234.74 2582.37 2234.66 2579.56 2234.71 2575.5 2234.9 2570.2 2235.09 2564.91 2235.54 2560.13 2236.26 2555.89 2236.98 2551.64 2238.25 2546.95 2240.07 2541.83 2241.88 2536.7 2244.19 2532.37 2246.98 2528.82 2249.77 2525.28 2253.46 2522.21 2258.04 2519.63 2262.62 2517.04 2267.8 2515.54 2273.58 2515.13 2273.78 2515.02 2274.07 2514.94 2274.45 2514.88Z" fill="#A07BC6" fill-rule="evenodd" fill-opacity="1"/><text fill="#000000" fill-opacity="0" font-family="Arial,Arial_MSFontService,sans-serif" font-size="129.426" direction="ltr" writing-mode="lr-tb" x="2234.71" y="2628.01">C</text><path d="M2377.18 2502.36C2383.42 2501.35 2387.09 2502.26 2388.19 2505.06 2391.01 2514.47 2393.91 2528.43 2396.89 2546.93 2399.87 2565.43 2402.18 2582.27 2403.79 2597.47 2405.41 2612.66 2405.74 2621.03 2404.77 2622.56 2402.91 2625.56 2395.69 2627.08 2383.11 2627.11 2380.79 2627.16 2379.28 2625.97 2378.58 2623.52 2377.92 2620.79 2376.92 2613.49 2375.58 2601.62 2374.24 2589.75 2373.21 2581.5 2372.49 2576.87 2372.4 2576.31 2372.31 2575.95 2372.23 2575.81 2372.14 2575.67 2372.1 2575.65 2372.11 2575.75L2354.01 2579.24C2353.89 2579.26 2353.72 2579.28 2353.5 2579.32 2352.27 2579.51 2351.66 2579.6 2351.67 2579.58 2351.69 2579.57 2351.74 2579.79 2351.81 2580.25 2352.38 2583.96 2353.53 2590.27 2355.23 2599.18 2356.94 2608.1 2358.17 2615.36 2358.93 2620.98 2359.68 2626.59 2359.23 2629.75 2357.57 2630.45 2351.52 2633.28 2343.7 2634.5 2334.11 2634.09 2330.89 2634.11 2326.59 2615.01 2321.22 2576.8 2315.85 2538.59 2314.38 2518.05 2316.82 2515.19 2318.33 2513.56 2322.18 2512.09 2328.35 2510.78 2334.52 2509.47 2338.75 2509.76 2341.04 2511.65 2341.88 2512.39 2342.72 2515.29 2343.56 2520.35 2344.41 2525.42 2345.33 2531.87 2346.33 2539.7 2347.33 2547.52 2348.09 2553.08 2348.6 2556.37 2348.63 2556.59 2349.47 2556.57 2351.1 2556.31 2357.86 2555.26 2362.7 2554.58 2365.62 2554.26 2366.09 2554.16 2366.51 2554.06 2366.87 2553.96 2367.23 2553.86 2367.4 2553.8 2367.4 2553.78L2360.58 2509.87C2361.78 2506.99 2366.37 2504.67 2374.34 2502.9 2375.34 2502.68 2376.28 2502.5 2377.18 2502.36Z" fill="#A07BC6" fill-rule="evenodd" fill-opacity="1"/><text fill="#000000" fill-opacity="0" font-family="Arial,Arial_MSFontService,sans-serif" font-size="132.207" direction="ltr" writing-mode="lr-tb" x="2315.67" y="2617.64">H</text><path d="M2410.37 2495.71C2415.83 2494.67 2419.28 2494.74 2420.7 2495.93 2423.36 2498.05 2427.12 2508.4 2431.96 2526.99 2436.81 2545.58 2440.79 2562.89 2443.92 2578.9 2447.05 2594.91 2448.84 2605.09 2449.3 2609.45 2449.73 2610.97 2449.06 2612.38 2447.29 2613.67 2445.52 2614.97 2443.45 2615.98 2441.06 2616.71 2438.68 2617.43 2436.25 2618.02 2433.76 2618.47 2431.28 2618.93 2428.89 2618.99 2426.62 2618.65 2424.34 2618.32 2422.87 2617.41 2422.2 2615.93 2421.15 2613.62 2416.68 2594.56 2408.8 2558.73 2400.92 2522.91 2397.04 2504.14 2397.15 2502.41 2397.41 2499.83 2401 2497.77 2407.9 2496.22 2408.77 2496.03 2409.59 2495.85 2410.37 2495.71Z" fill="#A07BC6" fill-rule="evenodd" fill-opacity="1"/><text fill="#000000" fill-opacity="0" font-family="Arial,Arial_MSFontService,sans-serif" font-size="123.883" direction="ltr" writing-mode="lr-tb" x="2397.14" y="2603.38">I</text><path d="M1641.3 1801 1650.07 1863.05C1653.99 1883.75 1658.85 1904.09 1664.58 1924.01L1681.55 1974.05 1681.55 2120.18C1681.55 2196.11 1743.15 2257.66 1819.13 2257.66L1892.03 2257.66 1897.84 2262.35C1944.85 2296.65 1996.7 2323.81 2052.04 2342.4L2069 2347.11 2057.11 2352.01C2022.07 2364.35 1985.49 2371 1948.92 2371L1948.7 2370.99 1948.7 2370.77C1753.66 2370.77 1558.56 2181.63 1595.55 1948.33 1602.48 1904.58 1614.88 1862.49 1631.27 1822.94L1641.3 1801Z" fill="url(#fill0)" fill-rule="evenodd"/><path d="M1648.83 1617 1641.35 1670.01C1639.34 1691.39 1638.32 1713.09 1638.32 1735.05 1638.32 1757.01 1639.34 1778.71 1641.35 1800.09L1641.51 1801.21 1631.5 1823.15C1615.14 1862.7 1602.75 1904.79 1595.83 1948.54 1558.9 2181.84 1753.7 2370.97 1948.44 2370.97L1948.44 2371.19 1948.66 2371.2C1985.18 2371.2 2021.69 2364.55 2056.68 2352.21L2068.56 2347.31 2107.99 2358.28C2146.29 2366.75 2185.93 2371.2 2226.54 2371.2L2227 2371.18 2215.62 2380.18C2137.19 2436.26 2043.01 2469 1948.84 2469L1948.55 2468.98 1948.55 2468.71 1948.55 2468.71C1697.43 2468.71 1446.23 2235.87 1493.85 1948.65 1514.69 1822.99 1573.84 1708.39 1647.13 1618.94L1648.83 1617Z" fill="url(#fill1)" fill-rule="evenodd"/><path d="M1682 1974 1684.84 1982.42C1722.02 2077.69 1779.97 2161.11 1852.55 2226.02L1892 2258 1819.27 2258C1743.46 2258 1682 2196.36 1682 2120.33L1682 1974Z" fill="url(#fill2)" fill-rule="evenodd"/></g></g></svg>