<svg width="925" height="1045" xmlns="http://www.w3.org/2000/svg" xmlns:xlink="http://www.w3.org/1999/xlink" xml:space="preserve" overflow="hidden"><defs><clipPath id="clip0"><rect x="1485" y="1425" width="925" height="1045"/></clipPath><clipPath id="clip1"><rect x="1485" y="1425" width="925" height="1045"/></clipPath><radialGradient cx="662247" cy="789709" r="1030637" fx="-0.5" fy="1579418" gradientUnits="userSpaceOnUse" spreadMethod="pad" id="fill2" gradientTransform="matrix(0.000360892 0 0 0.000360892 1591 1801)"><stop offset="0" stop-color="#FF9C62" stop-opacity="1"/><stop offset="1" stop-color="#FF9C62" stop-opacity="1"/></radialGradient><radialGradient cx="1023851" cy="1180408" r="1562573" fx="-0.6875" fy="2360815" gradientUnits="userSpaceOnUse" spreadMethod="pad" id="fill3" gradientTransform="matrix(0.000360892 0 0 0.000360892 1488 1617)"><stop offset="0" stop-color="#F8DFC2" stop-opacity="1"/><stop offset="0.047619" stop-color="#F8DFC3" stop-opacity="1"/><stop offset="0.0952381" stop-color="#F8E0C5" stop-opacity="1"/><stop offset="0.142857" stop-color="#F8E1C7" stop-opacity="1"/><stop offset="0.190476" stop-color="#F8E2C9" stop-opacity="1"/><stop offset="0.238095" stop-color="#F8E3CA" stop-opacity="1"/><stop offset="0.285714" stop-color="#F8E4CC" stop-opacity="1"/><stop offset="0.333333" stop-color="#F9E4CD" stop-opacity="1"/><stop offset="0.380952" stop-color="#F9E5CF" stop-opacity="1"/><stop offset="0.428571" stop-color="#F9E6D0" stop-opacity="1"/><stop offset="0.47619" stop-color="#F9E6D1" stop-opacity="1"/><stop offset="0.52381" stop-color="#F9E7D2" stop-opacity="1"/><stop offset="0.571429" stop-color="#F9E7D3" stop-opacity="1"/><stop offset="0.619048" stop-color="#F9E8D4" stop-opacity="1"/><stop offset="0.666667" stop-color="#F9E8D5" stop-opacity="1"/><stop offset="0.714286" stop-color="#F9E8D5" stop-opacity="1"/><stop offset="0.761905" stop-color="#F9E9D6" stop-opacity="1"/><stop offset="0.809524" stop-color="#F9E9D7" stop-opacity="1"/><stop offset="0.857143" stop-color="#F9E9D7" stop-opacity="1"/><stop offset="0.904762" stop-color="#F9E9D7" stop-opacity="1"/><stop offset="0.952381" stop-color="#F9E9D7" stop-opacity="1"/><stop offset="1" stop-color="#FAEAD8" stop-opacity="1"/></radialGradient><radialGradient cx="290946" cy="393469" r="489354" fx="0" fy="786938" gradientUnits="userSpaceOnUse" spreadMethod="pad" id="fill4" gradientTransform="matrix(0.000360892 0 0 0.000360892 1682 1974)"><stop offset="0" stop-color="#51D6A0" stop-opacity="1"/><stop offset="1" stop-color="#51D6A0" stop-opacity="1"/></radialGradient></defs><g clip-path="url(#clip0)" transform="translate(-1485 -1425)"><g clip-path="url(#clip1)"><path d="M461.144 0 460.857 0.0166065 460.857 0.286643 460.856 0.286643C301.479 3.6899 53.5151 233.034 5.85757 520.143-41.7999 807.252 209.567 1040 460.856 1040L461.143 1039.98 461.143 1039.71 461.144 1039.71C712.433 1039.71 963.8 806.966 916.142 519.857 868.485 232.748 620.521 3.40326 461.144 0Z" fill="#FDF6EE" fill-rule="evenodd" fill-opacity="1" transform="matrix(-1 0 0 1 2410 1429)"/><path d="M357.611 0 357.389 0.0134768 357.389 0.232622 357.389 0.232622C233.793 2.9945 41.5003 189.116 4.54247 422.116-32.4154 655.116 162.517 844 357.389 844L357.611 843.986 357.611 843.767 357.611 843.767C552.483 843.767 747.415 654.884 710.458 421.884 673.5 188.884 481.207 2.76187 357.611 0Z" fill="#FFA875" fill-rule="evenodd" fill-opacity="1" transform="matrix(-1 0 0 1 2306 1527)"/><path d="M1682 1875.47C1682 1799.55 1743.55 1738 1819.47 1738L2064.53 1738C2140.45 1738 2202 1799.55 2202 1875.47L2202 2120.53C2202 2196.45 2140.45 2258 2064.53 2258L1819.47 2258C1743.55 2258 1682 2196.45 1682 2120.53Z" fill="#5ED9A7" fill-rule="evenodd" fill-opacity="1"/><path d="M1841 1623C1841 1615.82 1846.82 1610 1854 1610L1854 1610C1861.18 1610 1867 1615.82 1867 1623L1867 1643C1867 1650.18 1861.18 1656 1854 1656L1854 1656C1846.82 1656 1841 1650.18 1841 1643Z" fill="#000000" fill-rule="evenodd" fill-opacity="1"/><path d="M2031 1622C2031 1614.82 2036.82 1609 2044 1609L2044 1609C2051.18 1609 2057 1614.82 2057 1622L2057 1641C2057 1648.18 2051.18 1654 2044 1654 2036.82 1654 2031 1648.18 2031 1641Z" fill="#000000" fill-rule="evenodd" fill-opacity="1"/><path d="M1995 1654.88C1969.63 1680.25 1928.5 1680.25 1903.13 1654.88" stroke="#000000" stroke-width="22.9167" stroke-linecap="round" stroke-linejoin="miter" stroke-miterlimit="8" stroke-opacity="1" fill="none" fill-rule="evenodd"/><path d="M1802.07 2036.89C1791.93 2026.74 1791.93 2010.29 1802.07 2000.14L1802.07 2000.14C1812.22 1989.99 1828.67 1989.99 1838.82 2000.14L1912.32 2073.63C1922.46 2083.78 1922.46 2100.23 1912.32 2110.38 1902.17 2120.53 1885.72 2120.53 1875.57 2110.38Z" fill="#FDF6EE" fill-rule="evenodd" fill-opacity="1"/><path d="M2059.3 1889.9C2069.45 1879.75 2085.9 1879.75 2096.05 1889.9L2096.05 1889.9C2106.2 1900.05 2106.2 1916.5 2096.05 1926.65L1912.31 2110.38C1902.17 2120.53 1885.72 2120.53 1875.57 2110.38 1865.42 2100.23 1865.42 2083.78 1875.57 2073.63Z" fill="#FDF6EE" fill-rule="evenodd" fill-opacity="1"/><path d="M1641.3 1801 1650.07 1863.05C1653.99 1883.75 1658.85 1904.09 1664.58 1924.01L1681.55 1974.05 1681.55 2120.18C1681.55 2196.11 1743.15 2257.66 1819.13 2257.66L1892.03 2257.66 1897.84 2262.35C1944.85 2296.65 1996.7 2323.81 2052.04 2342.4L2069 2347.11 2057.11 2352.01C2022.07 2364.35 1985.49 2371 1948.92 2371L1948.7 2370.99 1948.7 2370.77C1753.66 2370.77 1558.56 2181.63 1595.55 1948.33 1602.48 1904.58 1614.88 1862.49 1631.27 1822.94L1641.3 1801Z" fill="url(#fill2)" fill-rule="evenodd"/><path d="M1648.83 1617 1641.35 1670.01C1639.34 1691.39 1638.32 1713.09 1638.32 1735.05 1638.32 1757.01 1639.34 1778.71 1641.35 1800.09L1641.51 1801.21 1631.5 1823.15C1615.14 1862.7 1602.75 1904.79 1595.83 1948.54 1558.9 2181.84 1753.7 2370.97 1948.44 2370.97L1948.44 2371.19 1948.66 2371.2C1985.18 2371.2 2021.69 2364.55 2056.68 2352.21L2068.56 2347.31 2107.99 2358.28C2146.29 2366.75 2185.93 2371.2 2226.54 2371.2L2227 2371.18 2215.62 2380.18C2137.19 2436.26 2043.01 2469 1948.84 2469L1948.55 2468.98 1948.55 2468.71 1948.55 2468.71C1697.43 2468.71 1446.23 2235.87 1493.85 1948.65 1514.69 1822.99 1573.84 1708.39 1647.13 1618.94L1648.83 1617Z" fill="url(#fill3)" fill-rule="evenodd"/><path d="M1682 1974 1684.84 1982.42C1722.02 2077.69 1779.97 2161.11 1852.55 2226.02L1892 2258 1819.27 2258C1743.46 2258 1682 2196.36 1682 2120.33L1682 1974Z" fill="url(#fill4)" fill-rule="evenodd"/></g></g></svg>